<?xml version="1.0" encoding="utf-8"?>
<!-- Generator: Adobe Illustrator 22.0.1, SVG Export Plug-In . SVG Version: 6.00 Build 0)  -->
<svg version="1.1" id="Layer_1" xmlns="http://www.w3.org/2000/svg" xmlns:xlink="http://www.w3.org/1999/xlink" x="0px" y="0px"
	 viewBox="0 0 512.9 134" style="enable-background:new 0 0 512.9 134;" xml:space="preserve">
<style type="text/css">
	.st0{fill:#F08569;}
	.st1{fill:#006F8E;}
	.st2{fill:#545FA8;}
	.st3{fill:#016678;}
	.st4{fill:url(#SVGID_1_);}
	.st5{fill:url(#SVGID_2_);}
	.st6{fill:#FFFFFF;}
</style>
<g>
	<g>
		<path class="st1" d="M45.7,84.6l15.8-19.5l0,0l7.8-9.7c0.2-0.3,0.1-0.7-0.3-0.7L2.7,49.5c-0.1,0-0.2-0.1-0.3-0.2
			C0.8,55,0,60.9,0,67c0,37,30,67,67,67c30.6,0,56.5-20.6,64.4-48.7l-85.4,0C45.6,85.4,45.4,84.9,45.7,84.6z"/>
		<path class="st1" d="M87.9,48.6c0.4,0,0.6,0.4,0.3,0.7L72.4,68.8l0,0l-7.8,9.7c-0.2,0.3-0.1,0.7,0.3,0.7l66.8,5.2
			C133.2,78.9,134,73,134,67c0-37-30-67-67-67C36.3,0,10.5,20.6,2.5,48.7c0.1,0,0.1-0.1,0.2-0.1L87.9,48.6z"/>
	</g>
</g>
<g>
	<path d="M191.1,88.6h39.1v7.6h-50.6v-5.1l38.8-53.3h-36.3v-7.6H230v5.1L191.1,88.6z"/>
	<path d="M237.8,73.4c0-13.7,9.8-24,22.8-24c12.9,0,22.3,10.6,22.3,23.6c0,1.8-0.1,2.9-0.1,2.9h-36.9c0.6,8.1,7.5,14.1,15.4,14.1
		c6.9,0,10.4-3.3,13.3-7.8l6.6,3.4c-3.8,6.9-10.8,11.7-20,11.7C247.6,97.3,237.8,87.3,237.8,73.4z M274.7,69.2
		c-0.8-7.3-6.7-12.7-14.2-12.7c-7.5,0-13.6,6.5-14.3,12.7H274.7z"/>
	<path d="M302.3,96.3h-8.1V50.4h8.1V57c2.8-4.5,7.7-7.6,14.6-7.6c11.7,0,18.5,7.8,18.5,20v26.9h-8.1V70.3c0-8.2-4.2-13.4-12.1-13.4
		s-12.9,6-12.9,15.4V96.3z"/>
	<path d="M352.4,82.1c1.4,4.9,5.4,8.1,10.2,8.1c3.9,0,7.6-2.4,7.6-6.4c0-3.1-2.1-5.1-6.5-6.6l-5.1-1.7c-8.2-2.7-11.8-7.2-11.8-13
		c0-7.7,6.4-13.1,14.9-13.1c7.5,0,13.2,4.2,15.7,11.1l-7.1,2.8c-1.6-4.4-4.7-7-8.8-7c-3.8,0-6.7,2.3-6.7,5.6c0,2.7,2.1,4.8,6.7,6.4
		l4.7,1.6c8.3,2.8,12,7.4,12,13.4c0,8.1-6.9,14-15.8,14c-8.5,0-15.1-4.9-17.2-12.5L352.4,82.1z"/>
	<path d="M421.4,50.4h8.1v45.8h-8.1v-6.6c-2.8,4.5-7.6,7.6-14.5,7.6c-11.6,0-18.3-7.8-18.3-20V50.4h8.1v25.9
		c0,8.2,4.1,13.4,11.9,13.4c7.7,0,12.8-6,12.8-15.4V50.4z"/>
	<path d="M452.7,96.3h-8.1V50.4h8V57c2.5-4.7,7.2-7.6,13.5-7.6c6.8,0,11.7,3.4,14.4,9c2.3-3.9,7-9,15.7-9c10.6,0,16.9,7.5,16.9,19.2
		v27.6h-8.1V70.1c0-8.1-3.5-13.2-10.4-13.2c-7.1,0-11.7,6-11.7,15.4v24.1h-8.1v-26c0-8.2-3.6-13.4-10.4-13.4
		c-7.1,0-11.7,6-11.7,15.4V96.3z"/>
</g>
</svg>
